<?xml version="1.0" encoding="UTF-8"?>
<svg xmlns="http://www.w3.org/2000/svg" xmlns:xlink="http://www.w3.org/1999/xlink" width="1920" height="1080" viewBox="0 0 1920 1080">
<defs>
<g>
<g id="glyph-0-0">
<path d="M 0.171875 0 L 0.171875 -0.1875 L 0.21875 -0.1875 C 0.320312 -0.1875 0.410156 -0.203125 0.484375 -0.234375 C 0.554688 -0.273438 0.59375 -0.363281 0.59375 -0.5 L 0.59375 -2.6875 C 0.59375 -2.8125 0.554688 -2.890625 0.484375 -2.921875 C 0.410156 -2.960938 0.320312 -2.984375 0.21875 -2.984375 L 0.171875 -2.984375 L 0.171875 -3.171875 L 1.421875 -3.171875 C 1.785156 -3.171875 2.054688 -3.085938 2.234375 -2.921875 C 2.410156 -2.753906 2.5 -2.523438 2.5 -2.234375 C 2.5 -2.066406 2.460938 -1.90625 2.390625 -1.75 C 2.316406 -1.59375 2.191406 -1.46875 2.015625 -1.375 C 1.835938 -1.28125 1.601562 -1.234375 1.3125 -1.234375 L 1.03125 -1.234375 L 1.03125 -0.484375 C 1.03125 -0.347656 1.066406 -0.265625 1.140625 -0.234375 C 1.210938 -0.203125 1.300781 -0.1875 1.40625 -0.1875 L 1.546875 -0.1875 L 1.546875 0 Z M 1.28125 -1.4375 C 1.539062 -1.4375 1.726562 -1.492188 1.84375 -1.609375 C 1.96875 -1.734375 2.03125 -1.9375 2.03125 -2.21875 C 2.03125 -2.46875 1.976562 -2.648438 1.875 -2.765625 C 1.769531 -2.890625 1.59375 -2.953125 1.34375 -2.953125 L 1.03125 -2.953125 L 1.03125 -1.4375 Z "/>
</g>
<g id="glyph-0-1">
<path d="M 1.28125 0.046875 C 0.957031 0.046875 0.703125 -0.0546875 0.515625 -0.265625 C 0.335938 -0.484375 0.25 -0.785156 0.25 -1.171875 C 0.25 -1.585938 0.332031 -1.898438 0.5 -2.109375 C 0.675781 -2.316406 0.921875 -2.421875 1.234375 -2.421875 C 1.515625 -2.421875 1.738281 -2.332031 1.90625 -2.15625 C 2.070312 -1.976562 2.15625 -1.710938 2.15625 -1.359375 L 2.15625 -1.15625 L 0.671875 -1.15625 C 0.679688 -0.832031 0.738281 -0.597656 0.84375 -0.453125 C 0.957031 -0.304688 1.117188 -0.234375 1.328125 -0.234375 C 1.484375 -0.234375 1.613281 -0.265625 1.71875 -0.328125 C 1.832031 -0.390625 1.914062 -0.460938 1.96875 -0.546875 C 1.988281 -0.535156 2.003906 -0.515625 2.015625 -0.484375 C 2.035156 -0.460938 2.046875 -0.429688 2.046875 -0.390625 C 2.046875 -0.335938 2.019531 -0.273438 1.96875 -0.203125 C 1.914062 -0.140625 1.832031 -0.0820312 1.71875 -0.03125 C 1.601562 0.0195312 1.457031 0.046875 1.28125 0.046875 Z M 1.703125 -1.390625 C 1.703125 -1.628906 1.664062 -1.820312 1.59375 -1.96875 C 1.519531 -2.113281 1.394531 -2.1875 1.21875 -2.1875 C 1.050781 -2.1875 0.921875 -2.117188 0.828125 -1.984375 C 0.742188 -1.847656 0.695312 -1.648438 0.6875 -1.390625 Z "/>
</g>
<g id="glyph-0-2">
<path d="M 0.140625 0 L 0.140625 -0.1875 L 0.15625 -0.1875 C 0.257812 -0.1875 0.347656 -0.203125 0.421875 -0.234375 C 0.492188 -0.273438 0.53125 -0.363281 0.53125 -0.5 L 0.53125 -1.890625 C 0.53125 -2.015625 0.492188 -2.09375 0.421875 -2.125 C 0.347656 -2.164062 0.257812 -2.1875 0.15625 -2.1875 L 0.140625 -2.1875 L 0.140625 -2.375 L 0.828125 -2.375 L 0.921875 -1.9375 L 0.9375 -1.9375 C 0.976562 -2.03125 1.019531 -2.113281 1.0625 -2.1875 C 1.101562 -2.257812 1.160156 -2.316406 1.234375 -2.359375 C 1.304688 -2.398438 1.410156 -2.421875 1.546875 -2.421875 C 1.703125 -2.421875 1.820312 -2.390625 1.90625 -2.328125 C 1.988281 -2.273438 2.03125 -2.195312 2.03125 -2.09375 C 2.03125 -2.007812 1.992188 -1.9375 1.921875 -1.875 C 1.859375 -1.8125 1.753906 -1.78125 1.609375 -1.78125 C 1.609375 -1.90625 1.585938 -1.992188 1.546875 -2.046875 C 1.515625 -2.097656 1.457031 -2.125 1.375 -2.125 C 1.289062 -2.125 1.21875 -2.09375 1.15625 -2.03125 C 1.101562 -1.96875 1.0625 -1.882812 1.03125 -1.78125 C 1 -1.6875 0.972656 -1.582031 0.953125 -1.46875 C 0.941406 -1.363281 0.9375 -1.269531 0.9375 -1.1875 L 0.9375 -0.484375 C 0.9375 -0.347656 0.972656 -0.265625 1.046875 -0.234375 C 1.117188 -0.203125 1.203125 -0.1875 1.296875 -0.1875 L 1.421875 -0.1875 L 1.421875 0 Z "/>
</g>
<g id="glyph-0-3">
<path d="M 0.9375 0.046875 C 0.707031 0.046875 0.523438 0.0078125 0.390625 -0.0625 C 0.265625 -0.144531 0.203125 -0.265625 0.203125 -0.421875 C 0.203125 -0.503906 0.21875 -0.566406 0.25 -0.609375 C 0.28125 -0.648438 0.316406 -0.679688 0.359375 -0.703125 C 0.398438 -0.722656 0.441406 -0.734375 0.484375 -0.734375 C 0.484375 -0.578125 0.515625 -0.441406 0.578125 -0.328125 C 0.648438 -0.222656 0.773438 -0.171875 0.953125 -0.171875 C 1.109375 -0.171875 1.226562 -0.207031 1.3125 -0.28125 C 1.40625 -0.351562 1.453125 -0.453125 1.453125 -0.578125 C 1.453125 -0.648438 1.4375 -0.707031 1.40625 -0.75 C 1.375 -0.800781 1.316406 -0.847656 1.234375 -0.890625 C 1.160156 -0.941406 1.050781 -1 0.90625 -1.0625 C 0.75 -1.125 0.617188 -1.1875 0.515625 -1.25 C 0.421875 -1.3125 0.347656 -1.382812 0.296875 -1.46875 C 0.253906 -1.5625 0.234375 -1.671875 0.234375 -1.796875 C 0.234375 -1.992188 0.304688 -2.144531 0.453125 -2.25 C 0.609375 -2.363281 0.8125 -2.421875 1.0625 -2.421875 C 1.28125 -2.421875 1.441406 -2.378906 1.546875 -2.296875 C 1.660156 -2.210938 1.71875 -2.117188 1.71875 -2.015625 C 1.71875 -1.929688 1.6875 -1.863281 1.625 -1.8125 C 1.570312 -1.769531 1.492188 -1.75 1.390625 -1.75 C 1.390625 -1.894531 1.359375 -2.007812 1.296875 -2.09375 C 1.234375 -2.175781 1.140625 -2.21875 1.015625 -2.21875 C 0.859375 -2.21875 0.75 -2.179688 0.6875 -2.109375 C 0.625 -2.046875 0.59375 -1.960938 0.59375 -1.859375 C 0.59375 -1.742188 0.632812 -1.65625 0.71875 -1.59375 C 0.800781 -1.539062 0.941406 -1.472656 1.140625 -1.390625 C 1.296875 -1.328125 1.421875 -1.257812 1.515625 -1.1875 C 1.617188 -1.125 1.691406 -1.050781 1.734375 -0.96875 C 1.785156 -0.882812 1.8125 -0.78125 1.8125 -0.65625 C 1.8125 -0.425781 1.726562 -0.25 1.5625 -0.125 C 1.40625 -0.0078125 1.195312 0.046875 0.9375 0.046875 Z "/>
</g>
<g id="glyph-0-4">
<path d="M 1.28125 0.046875 C 0.957031 0.046875 0.703125 -0.0507812 0.515625 -0.25 C 0.335938 -0.457031 0.25 -0.769531 0.25 -1.1875 C 0.25 -1.601562 0.332031 -1.910156 0.5 -2.109375 C 0.675781 -2.316406 0.9375 -2.421875 1.28125 -2.421875 C 1.601562 -2.421875 1.851562 -2.316406 2.03125 -2.109375 C 2.21875 -1.910156 2.3125 -1.601562 2.3125 -1.1875 C 2.3125 -0.769531 2.222656 -0.457031 2.046875 -0.25 C 1.867188 -0.0507812 1.613281 0.046875 1.28125 0.046875 Z M 1.28125 -0.1875 C 1.5 -0.1875 1.65625 -0.269531 1.75 -0.4375 C 1.84375 -0.613281 1.890625 -0.863281 1.890625 -1.1875 C 1.890625 -1.519531 1.84375 -1.769531 1.75 -1.9375 C 1.65625 -2.101562 1.5 -2.1875 1.28125 -2.1875 C 1.050781 -2.1875 0.890625 -2.101562 0.796875 -1.9375 C 0.710938 -1.769531 0.671875 -1.519531 0.671875 -1.1875 C 0.671875 -0.863281 0.71875 -0.613281 0.8125 -0.4375 C 0.90625 -0.269531 1.0625 -0.1875 1.28125 -0.1875 Z "/>
</g>
<g id="glyph-0-5">
<path d="M 0.125 0 L 0.125 -0.1875 L 0.15625 -0.1875 C 0.257812 -0.1875 0.347656 -0.203125 0.421875 -0.234375 C 0.492188 -0.273438 0.53125 -0.363281 0.53125 -0.5 L 0.53125 -1.890625 C 0.53125 -2.015625 0.492188 -2.09375 0.421875 -2.125 C 0.347656 -2.164062 0.265625 -2.1875 0.171875 -2.1875 L 0.140625 -2.1875 L 0.140625 -2.375 L 0.859375 -2.375 L 0.921875 -2.015625 L 0.9375 -2.015625 C 1.03125 -2.179688 1.132812 -2.289062 1.25 -2.34375 C 1.363281 -2.394531 1.492188 -2.421875 1.640625 -2.421875 C 1.867188 -2.421875 2.050781 -2.351562 2.1875 -2.21875 C 2.320312 -2.082031 2.390625 -1.859375 2.390625 -1.546875 L 2.390625 -0.5 C 2.390625 -0.363281 2.414062 -0.273438 2.46875 -0.234375 C 2.53125 -0.203125 2.613281 -0.1875 2.71875 -0.1875 L 2.734375 -0.1875 L 2.734375 0 L 1.96875 0 L 1.96875 -1.53125 C 1.96875 -1.71875 1.929688 -1.863281 1.859375 -1.96875 C 1.785156 -2.082031 1.660156 -2.140625 1.484375 -2.140625 C 1.347656 -2.140625 1.238281 -2.101562 1.15625 -2.03125 C 1.082031 -1.96875 1.023438 -1.878906 0.984375 -1.765625 C 0.953125 -1.660156 0.9375 -1.546875 0.9375 -1.421875 L 0.9375 -0.484375 C 0.9375 -0.347656 0.972656 -0.265625 1.046875 -0.234375 C 1.117188 -0.203125 1.203125 -0.1875 1.296875 -0.1875 L 1.3125 -0.1875 L 1.3125 0 Z "/>
</g>
<g id="glyph-0-6">
<path d="M 0.90625 0.046875 C 0.707031 0.046875 0.539062 -0.0078125 0.40625 -0.125 C 0.28125 -0.238281 0.21875 -0.421875 0.21875 -0.671875 C 0.21875 -0.898438 0.300781 -1.070312 0.46875 -1.1875 C 0.632812 -1.300781 0.890625 -1.363281 1.234375 -1.375 L 1.609375 -1.390625 L 1.609375 -1.65625 C 1.609375 -1.757812 1.597656 -1.851562 1.578125 -1.9375 C 1.554688 -2.019531 1.515625 -2.082031 1.453125 -2.125 C 1.398438 -2.175781 1.3125 -2.203125 1.1875 -2.203125 C 1.070312 -2.203125 0.984375 -2.179688 0.921875 -2.140625 C 0.867188 -2.097656 0.832031 -2.039062 0.8125 -1.96875 C 0.789062 -1.894531 0.78125 -1.8125 0.78125 -1.71875 C 0.65625 -1.71875 0.5625 -1.738281 0.5 -1.78125 C 0.4375 -1.820312 0.40625 -1.894531 0.40625 -2 C 0.40625 -2.101562 0.441406 -2.1875 0.515625 -2.25 C 0.585938 -2.3125 0.679688 -2.351562 0.796875 -2.375 C 0.921875 -2.40625 1.054688 -2.421875 1.203125 -2.421875 C 1.472656 -2.421875 1.675781 -2.363281 1.8125 -2.25 C 1.945312 -2.132812 2.015625 -1.9375 2.015625 -1.65625 L 2.015625 -0.5 C 2.015625 -0.375 2.035156 -0.289062 2.078125 -0.25 C 2.117188 -0.207031 2.191406 -0.1875 2.296875 -0.1875 L 2.3125 -0.1875 L 2.3125 0 L 1.703125 0 L 1.640625 -0.375 L 1.609375 -0.375 C 1.546875 -0.289062 1.484375 -0.21875 1.421875 -0.15625 C 1.359375 -0.09375 1.285156 -0.0390625 1.203125 0 C 1.128906 0.03125 1.03125 0.046875 0.90625 0.046875 Z M 1.015625 -0.234375 C 1.191406 -0.234375 1.332031 -0.285156 1.4375 -0.390625 C 1.550781 -0.503906 1.609375 -0.65625 1.609375 -0.84375 L 1.609375 -1.203125 L 1.3125 -1.1875 C 1.0625 -1.175781 0.890625 -1.125 0.796875 -1.03125 C 0.703125 -0.945312 0.65625 -0.816406 0.65625 -0.640625 C 0.65625 -0.367188 0.773438 -0.234375 1.015625 -0.234375 Z "/>
</g>
<g id="glyph-0-7">
<path d="M 0.671875 -2.828125 C 0.597656 -2.828125 0.535156 -2.847656 0.484375 -2.890625 C 0.441406 -2.929688 0.421875 -3 0.421875 -3.09375 C 0.421875 -3.195312 0.441406 -3.269531 0.484375 -3.3125 C 0.535156 -3.351562 0.597656 -3.375 0.671875 -3.375 C 0.734375 -3.375 0.789062 -3.351562 0.84375 -3.3125 C 0.894531 -3.269531 0.921875 -3.195312 0.921875 -3.09375 C 0.921875 -3 0.894531 -2.929688 0.84375 -2.890625 C 0.789062 -2.847656 0.734375 -2.828125 0.671875 -2.828125 Z M -0.046875 1.0625 L -0.046875 0.859375 L -0.015625 0.859375 C 0.0859375 0.859375 0.175781 0.832031 0.25 0.78125 C 0.320312 0.726562 0.378906 0.640625 0.421875 0.515625 C 0.460938 0.398438 0.484375 0.242188 0.484375 0.046875 L 0.484375 -1.890625 C 0.484375 -2.015625 0.445312 -2.09375 0.375 -2.125 C 0.300781 -2.164062 0.210938 -2.1875 0.109375 -2.1875 L 0.109375 -2.375 L 0.890625 -2.375 L 0.890625 0.03125 C 0.890625 0.300781 0.851562 0.507812 0.78125 0.65625 C 0.707031 0.8125 0.601562 0.914062 0.46875 0.96875 C 0.34375 1.03125 0.191406 1.0625 0.015625 1.0625 Z "/>
</g>
<g id="glyph-0-8">
</g>
<g id="glyph-0-9">
<path d="M 1.390625 0.5625 C 1.117188 0.457031 0.898438 0.316406 0.734375 0.140625 C 0.566406 -0.0234375 0.441406 -0.234375 0.359375 -0.484375 C 0.285156 -0.742188 0.25 -1.050781 0.25 -1.40625 C 0.25 -1.757812 0.285156 -2.0625 0.359375 -2.3125 C 0.441406 -2.570312 0.566406 -2.785156 0.734375 -2.953125 C 0.898438 -3.128906 1.117188 -3.269531 1.390625 -3.375 L 1.390625 -3.171875 C 1.191406 -3.046875 1.039062 -2.890625 0.9375 -2.703125 C 0.84375 -2.523438 0.78125 -2.320312 0.75 -2.09375 C 0.726562 -1.875 0.71875 -1.644531 0.71875 -1.40625 C 0.71875 -1.175781 0.726562 -0.945312 0.75 -0.71875 C 0.78125 -0.488281 0.84375 -0.28125 0.9375 -0.09375 C 1.039062 0.0820312 1.191406 0.234375 1.390625 0.359375 Z "/>
</g>
<g id="glyph-0-10">
<path d="M 1.25 0.046875 C 1 0.046875 0.796875 -0.0195312 0.640625 -0.15625 C 0.492188 -0.289062 0.382812 -0.476562 0.3125 -0.71875 C 0.238281 -0.96875 0.203125 -1.257812 0.203125 -1.59375 C 0.203125 -1.914062 0.238281 -2.195312 0.3125 -2.4375 C 0.382812 -2.6875 0.492188 -2.878906 0.640625 -3.015625 C 0.796875 -3.148438 1 -3.21875 1.25 -3.21875 C 1.476562 -3.21875 1.664062 -3.148438 1.8125 -3.015625 C 1.96875 -2.878906 2.082031 -2.6875 2.15625 -2.4375 C 2.238281 -2.195312 2.28125 -1.914062 2.28125 -1.59375 C 2.28125 -1.257812 2.238281 -0.96875 2.15625 -0.71875 C 2.082031 -0.476562 1.96875 -0.289062 1.8125 -0.15625 C 1.664062 -0.0195312 1.476562 0.046875 1.25 0.046875 Z M 1.25 -0.1875 C 1.457031 -0.1875 1.601562 -0.3125 1.6875 -0.5625 C 1.769531 -0.8125 1.8125 -1.15625 1.8125 -1.59375 C 1.8125 -2.03125 1.769531 -2.367188 1.6875 -2.609375 C 1.601562 -2.847656 1.457031 -2.96875 1.25 -2.96875 C 1.03125 -2.96875 0.875 -2.847656 0.78125 -2.609375 C 0.695312 -2.367188 0.65625 -2.03125 0.65625 -1.59375 C 0.65625 -1.15625 0.695312 -0.8125 0.78125 -0.5625 C 0.875 -0.3125 1.03125 -0.1875 1.25 -0.1875 Z "/>
</g>
<g id="glyph-0-11">
<path d="M 0.140625 0.5 C 0.410156 0.40625 0.546875 0.269531 0.546875 0.09375 C 0.546875 0.0507812 0.53125 0.0195312 0.5 0 C 0.46875 -0.03125 0.429688 -0.0546875 0.390625 -0.078125 C 0.347656 -0.0976562 0.3125 -0.125 0.28125 -0.15625 C 0.25 -0.1875 0.234375 -0.238281 0.234375 -0.3125 C 0.234375 -0.394531 0.257812 -0.457031 0.3125 -0.5 C 0.363281 -0.550781 0.429688 -0.578125 0.515625 -0.578125 C 0.609375 -0.578125 0.6875 -0.539062 0.75 -0.46875 C 0.820312 -0.40625 0.859375 -0.3125 0.859375 -0.1875 C 0.859375 0 0.800781 0.171875 0.6875 0.328125 C 0.582031 0.484375 0.398438 0.601562 0.140625 0.6875 Z "/>
</g>
<g id="glyph-0-12">
<path d="M 0.953125 0 L 0.953125 -0.1875 L 1.078125 -0.1875 C 1.179688 -0.1875 1.265625 -0.203125 1.328125 -0.234375 C 1.398438 -0.273438 1.4375 -0.363281 1.4375 -0.5 L 1.4375 -0.875 L 0.078125 -0.875 L 0.078125 -1.046875 L 1.453125 -3.171875 L 1.875 -3.171875 L 1.875 -1.125 L 2.421875 -1.125 L 2.421875 -0.875 L 1.875 -0.875 L 1.875 -0.5 C 1.875 -0.363281 1.90625 -0.273438 1.96875 -0.234375 C 2.039062 -0.203125 2.128906 -0.1875 2.234375 -0.1875 L 2.296875 -0.1875 L 2.296875 0 Z M 0.390625 -1.125 L 1.4375 -1.125 L 1.4375 -1.9375 C 1.4375 -2.019531 1.4375 -2.113281 1.4375 -2.21875 C 1.445312 -2.332031 1.453125 -2.441406 1.453125 -2.546875 C 1.460938 -2.660156 1.46875 -2.765625 1.46875 -2.859375 C 1.457031 -2.828125 1.4375 -2.78125 1.40625 -2.71875 C 1.375 -2.664062 1.335938 -2.601562 1.296875 -2.53125 C 1.253906 -2.457031 1.210938 -2.390625 1.171875 -2.328125 C 1.128906 -2.265625 1.097656 -2.210938 1.078125 -2.171875 Z "/>
</g>
<g id="glyph-0-13">
<path d="M 0.140625 0.359375 C 0.347656 0.234375 0.5 0.0820312 0.59375 -0.09375 C 0.6875 -0.28125 0.75 -0.488281 0.78125 -0.71875 C 0.8125 -0.945312 0.828125 -1.175781 0.828125 -1.40625 C 0.828125 -1.644531 0.8125 -1.875 0.78125 -2.09375 C 0.75 -2.320312 0.6875 -2.523438 0.59375 -2.703125 C 0.5 -2.890625 0.347656 -3.046875 0.140625 -3.171875 L 0.140625 -3.375 C 0.410156 -3.269531 0.628906 -3.128906 0.796875 -2.953125 C 0.960938 -2.785156 1.082031 -2.570312 1.15625 -2.3125 C 1.238281 -2.0625 1.28125 -1.757812 1.28125 -1.40625 C 1.28125 -1.050781 1.238281 -0.742188 1.15625 -0.484375 C 1.082031 -0.234375 0.960938 -0.0234375 0.796875 0.140625 C 0.628906 0.316406 0.410156 0.457031 0.140625 0.5625 Z "/>
</g>
</g>
</defs>
<g fill="rgb(34.509804%, 76.862745%, 86.666667%)" fill-opacity="1">
<use xlink:href="#glyph-0-0" x="30" y="24.750977"/>
<use xlink:href="#glyph-0-1" x="33" y="24.750977"/>
<use xlink:href="#glyph-0-2" x="35" y="24.750977"/>
<use xlink:href="#glyph-0-3" x="37" y="24.750977"/>
<use xlink:href="#glyph-0-4" x="39" y="24.750977"/>
<use xlink:href="#glyph-0-5" x="42" y="24.750977"/>
<use xlink:href="#glyph-0-6" x="45" y="24.750977"/>
<use xlink:href="#glyph-0-7" x="48" y="24.750977"/>
<use xlink:href="#glyph-0-1" x="49" y="24.750977"/>
<use xlink:href="#glyph-0-8" x="51" y="24.750977"/>
<use xlink:href="#glyph-0-9" x="52" y="24.750977"/>
<use xlink:href="#glyph-0-10" x="54" y="24.750977"/>
<use xlink:href="#glyph-0-11" x="56" y="24.750977"/>
<use xlink:href="#glyph-0-8" x="57" y="24.750977"/>
<use xlink:href="#glyph-0-12" x="58" y="24.750977"/>
<use xlink:href="#glyph-0-13" x="60" y="24.750977"/>
</g>
</svg>
