<?xml version="1.0" encoding="UTF-8"?>
<svg xmlns="http://www.w3.org/2000/svg" xmlns:xlink="http://www.w3.org/1999/xlink" width="1920" height="1080" viewBox="0 0 1920 1080">
<defs>
<g>
<g id="glyph-0-0">
<path d="M 0.3125 0 L 0.3125 -0.140625 L 0.546875 -0.140625 C 0.617188 -0.140625 0.679688 -0.148438 0.734375 -0.171875 C 0.785156 -0.203125 0.8125 -0.269531 0.8125 -0.375 L 0.8125 -2.125 C 0.726562 -2.019531 0.648438 -1.9375 0.578125 -1.875 C 0.515625 -1.8125 0.453125 -1.78125 0.390625 -1.78125 C 0.335938 -1.78125 0.296875 -1.796875 0.265625 -1.828125 C 0.234375 -1.859375 0.21875 -1.898438 0.21875 -1.953125 C 0.28125 -1.972656 0.347656 -2 0.421875 -2.03125 C 0.503906 -2.070312 0.597656 -2.132812 0.703125 -2.21875 L 0.9375 -2.390625 L 1.15625 -2.390625 L 1.15625 -0.375 C 1.15625 -0.269531 1.179688 -0.203125 1.234375 -0.171875 C 1.285156 -0.148438 1.347656 -0.140625 1.421875 -0.140625 L 1.59375 -0.140625 L 1.59375 0 Z "/>
</g>
<g id="glyph-0-1">
<path d="M 0.421875 0.015625 C 0.359375 0.015625 0.304688 0 0.265625 -0.03125 C 0.222656 -0.0625 0.203125 -0.117188 0.203125 -0.203125 C 0.203125 -0.285156 0.222656 -0.34375 0.265625 -0.375 C 0.304688 -0.40625 0.359375 -0.421875 0.421875 -0.421875 C 0.472656 -0.421875 0.519531 -0.40625 0.5625 -0.375 C 0.601562 -0.34375 0.625 -0.285156 0.625 -0.203125 C 0.625 -0.117188 0.601562 -0.0625 0.5625 -0.03125 C 0.519531 0 0.472656 0.015625 0.421875 0.015625 Z "/>
</g>
<g id="glyph-0-2">
</g>
<g id="glyph-0-3">
<path d="M 0.28125 -2.0625 C 0.257812 -2.132812 0.226562 -2.179688 0.1875 -2.203125 C 0.15625 -2.222656 0.109375 -2.234375 0.046875 -2.234375 L 0 -2.234375 L 0 -2.375 L 0.921875 -2.375 L 0.921875 -2.234375 L 0.84375 -2.234375 C 0.707031 -2.234375 0.640625 -2.179688 0.640625 -2.078125 C 0.640625 -2.054688 0.640625 -2.035156 0.640625 -2.015625 C 0.648438 -1.992188 0.660156 -1.972656 0.671875 -1.953125 L 1.03125 -0.875 C 1.0625 -0.769531 1.085938 -0.671875 1.109375 -0.578125 C 1.140625 -0.492188 1.164062 -0.410156 1.1875 -0.328125 C 1.195312 -0.410156 1.210938 -0.492188 1.234375 -0.578125 C 1.265625 -0.671875 1.296875 -0.769531 1.328125 -0.875 L 1.703125 -1.9375 C 1.710938 -1.957031 1.71875 -1.976562 1.71875 -2 C 1.726562 -2.03125 1.734375 -2.054688 1.734375 -2.078125 C 1.734375 -2.179688 1.660156 -2.234375 1.515625 -2.234375 L 1.4375 -2.234375 L 1.4375 -2.375 L 2.25 -2.375 L 2.25 -2.234375 L 2.1875 -2.234375 C 2.125 -2.234375 2.070312 -2.21875 2.03125 -2.1875 C 2 -2.15625 1.96875 -2.085938 1.9375 -1.984375 L 1.234375 0 L 1 0 Z "/>
</g>
<g id="glyph-0-4">
<path d="M 0.953125 0.03125 C 0.710938 0.03125 0.523438 -0.046875 0.390625 -0.203125 C 0.253906 -0.367188 0.1875 -0.59375 0.1875 -0.875 C 0.1875 -1.1875 0.25 -1.421875 0.375 -1.578125 C 0.5 -1.734375 0.679688 -1.8125 0.921875 -1.8125 C 1.140625 -1.8125 1.304688 -1.742188 1.421875 -1.609375 C 1.546875 -1.484375 1.609375 -1.285156 1.609375 -1.015625 L 1.609375 -0.875 L 0.5 -0.875 C 0.507812 -0.625 0.554688 -0.441406 0.640625 -0.328125 C 0.722656 -0.222656 0.84375 -0.171875 1 -0.171875 C 1.113281 -0.171875 1.210938 -0.191406 1.296875 -0.234375 C 1.378906 -0.285156 1.441406 -0.34375 1.484375 -0.40625 C 1.492188 -0.40625 1.503906 -0.394531 1.515625 -0.375 C 1.535156 -0.351562 1.546875 -0.328125 1.546875 -0.296875 C 1.546875 -0.253906 1.523438 -0.207031 1.484375 -0.15625 C 1.441406 -0.101562 1.375 -0.0546875 1.28125 -0.015625 C 1.195312 0.015625 1.085938 0.03125 0.953125 0.03125 Z M 1.28125 -1.046875 C 1.28125 -1.222656 1.25 -1.363281 1.1875 -1.46875 C 1.132812 -1.582031 1.046875 -1.640625 0.921875 -1.640625 C 0.796875 -1.640625 0.695312 -1.585938 0.625 -1.484375 C 0.5625 -1.378906 0.523438 -1.234375 0.515625 -1.046875 Z "/>
</g>
<g id="glyph-0-5">
<path d="M 0.046875 0 L 0.046875 -0.140625 L 0.09375 -0.140625 C 0.164062 -0.140625 0.226562 -0.148438 0.28125 -0.171875 C 0.332031 -0.203125 0.359375 -0.269531 0.359375 -0.375 L 0.359375 -2.15625 C 0.359375 -2.257812 0.332031 -2.320312 0.28125 -2.34375 C 0.226562 -2.375 0.164062 -2.390625 0.09375 -2.390625 L 0.046875 -2.390625 L 0.046875 -2.53125 L 0.671875 -2.53125 L 0.671875 -0.375 C 0.671875 -0.269531 0.695312 -0.203125 0.75 -0.171875 C 0.800781 -0.148438 0.863281 -0.140625 0.9375 -0.140625 L 0.984375 -0.140625 L 0.984375 0 Z "/>
</g>
<g id="glyph-0-6">
<path d="M 1.203125 0.03125 C 0.984375 0.03125 0.796875 -0.015625 0.640625 -0.109375 C 0.492188 -0.210938 0.378906 -0.359375 0.296875 -0.546875 C 0.222656 -0.734375 0.1875 -0.945312 0.1875 -1.1875 C 0.1875 -1.425781 0.226562 -1.632812 0.3125 -1.8125 C 0.394531 -2 0.515625 -2.144531 0.671875 -2.25 C 0.828125 -2.351562 1.023438 -2.40625 1.265625 -2.40625 C 1.484375 -2.40625 1.648438 -2.367188 1.765625 -2.296875 C 1.878906 -2.234375 1.9375 -2.144531 1.9375 -2.03125 C 1.9375 -1.96875 1.90625 -1.910156 1.84375 -1.859375 C 1.789062 -1.816406 1.722656 -1.796875 1.640625 -1.796875 C 1.640625 -1.867188 1.625 -1.9375 1.59375 -2 C 1.570312 -2.070312 1.53125 -2.128906 1.46875 -2.171875 C 1.414062 -2.210938 1.34375 -2.234375 1.25 -2.234375 C 1 -2.234375 0.820312 -2.140625 0.71875 -1.953125 C 0.613281 -1.773438 0.5625 -1.519531 0.5625 -1.1875 C 0.5625 -0.988281 0.582031 -0.8125 0.625 -0.65625 C 0.675781 -0.507812 0.753906 -0.394531 0.859375 -0.3125 C 0.960938 -0.226562 1.09375 -0.1875 1.25 -0.1875 C 1.414062 -0.1875 1.539062 -0.210938 1.625 -0.265625 C 1.71875 -0.328125 1.796875 -0.394531 1.859375 -0.46875 C 1.867188 -0.457031 1.878906 -0.441406 1.890625 -0.421875 C 1.910156 -0.398438 1.921875 -0.375 1.921875 -0.34375 C 1.921875 -0.28125 1.894531 -0.21875 1.84375 -0.15625 C 1.789062 -0.101562 1.710938 -0.0546875 1.609375 -0.015625 C 1.503906 0.015625 1.367188 0.03125 1.203125 0.03125 Z "/>
</g>
<g id="glyph-0-7">
<path d="M 0.6875 0.03125 C 0.53125 0.03125 0.40625 -0.0078125 0.3125 -0.09375 C 0.21875 -0.175781 0.171875 -0.3125 0.171875 -0.5 C 0.171875 -0.675781 0.234375 -0.804688 0.359375 -0.890625 C 0.484375 -0.972656 0.671875 -1.019531 0.921875 -1.03125 L 1.203125 -1.046875 L 1.203125 -1.234375 C 1.203125 -1.316406 1.191406 -1.390625 1.171875 -1.453125 C 1.160156 -1.515625 1.132812 -1.5625 1.09375 -1.59375 C 1.050781 -1.632812 0.984375 -1.65625 0.890625 -1.65625 C 0.804688 -1.65625 0.738281 -1.640625 0.6875 -1.609375 C 0.644531 -1.578125 0.617188 -1.53125 0.609375 -1.46875 C 0.597656 -1.414062 0.59375 -1.351562 0.59375 -1.28125 C 0.5 -1.28125 0.425781 -1.296875 0.375 -1.328125 C 0.332031 -1.367188 0.3125 -1.425781 0.3125 -1.5 C 0.3125 -1.570312 0.335938 -1.628906 0.390625 -1.671875 C 0.441406 -1.722656 0.507812 -1.757812 0.59375 -1.78125 C 0.6875 -1.800781 0.789062 -1.8125 0.90625 -1.8125 C 1.113281 -1.8125 1.265625 -1.769531 1.359375 -1.6875 C 1.460938 -1.601562 1.515625 -1.453125 1.515625 -1.234375 L 1.515625 -0.375 C 1.515625 -0.28125 1.53125 -0.21875 1.5625 -0.1875 C 1.59375 -0.15625 1.644531 -0.140625 1.71875 -0.140625 L 1.734375 -0.140625 L 1.734375 0 L 1.28125 0 L 1.234375 -0.28125 L 1.203125 -0.28125 C 1.148438 -0.21875 1.101562 -0.160156 1.0625 -0.109375 C 1.019531 -0.0664062 0.96875 -0.03125 0.90625 0 C 0.851562 0.0195312 0.78125 0.03125 0.6875 0.03125 Z M 0.765625 -0.171875 C 0.898438 -0.171875 1.003906 -0.210938 1.078125 -0.296875 C 1.160156 -0.378906 1.203125 -0.492188 1.203125 -0.640625 L 1.203125 -0.90625 L 0.984375 -0.890625 C 0.796875 -0.878906 0.664062 -0.835938 0.59375 -0.765625 C 0.519531 -0.703125 0.484375 -0.609375 0.484375 -0.484375 C 0.484375 -0.273438 0.578125 -0.171875 0.765625 -0.171875 Z "/>
</g>
<g id="glyph-0-8">
<path d="M 0.078125 0 L 0.078125 -0.140625 L 0.125 -0.140625 C 0.195312 -0.140625 0.257812 -0.148438 0.3125 -0.171875 C 0.363281 -0.203125 0.390625 -0.265625 0.390625 -0.359375 L 0.390625 -1.421875 C 0.390625 -1.515625 0.363281 -1.570312 0.3125 -1.59375 C 0.257812 -1.625 0.195312 -1.640625 0.125 -1.640625 L 0.109375 -1.640625 L 0.109375 -1.78125 L 0.703125 -1.78125 L 0.703125 -0.375 C 0.703125 -0.269531 0.726562 -0.203125 0.78125 -0.171875 C 0.832031 -0.148438 0.898438 -0.140625 0.984375 -0.140625 L 1.015625 -0.140625 L 1.015625 0 Z M 0.390625 -2.0625 C 0.429688 -2.125 0.476562 -2.203125 0.53125 -2.296875 C 0.59375 -2.390625 0.640625 -2.472656 0.671875 -2.546875 L 1.03125 -2.546875 L 1.03125 -2.515625 C 1 -2.472656 0.953125 -2.421875 0.890625 -2.359375 C 0.835938 -2.296875 0.773438 -2.234375 0.703125 -2.171875 C 0.628906 -2.109375 0.566406 -2.054688 0.515625 -2.015625 L 0.390625 -2.015625 Z "/>
</g>
<g id="glyph-0-9">
<path d="M 0.859375 0.03125 C 0.640625 0.03125 0.472656 -0.0390625 0.359375 -0.1875 C 0.242188 -0.332031 0.1875 -0.566406 0.1875 -0.890625 C 0.1875 -1.210938 0.242188 -1.445312 0.359375 -1.59375 C 0.472656 -1.738281 0.640625 -1.8125 0.859375 -1.8125 C 0.992188 -1.8125 1.097656 -1.785156 1.171875 -1.734375 C 1.253906 -1.679688 1.320312 -1.613281 1.375 -1.53125 L 1.390625 -1.53125 C 1.378906 -1.582031 1.375 -1.640625 1.375 -1.703125 C 1.375 -1.773438 1.375 -1.835938 1.375 -1.890625 L 1.375 -2.15625 C 1.375 -2.257812 1.34375 -2.320312 1.28125 -2.34375 C 1.226562 -2.375 1.164062 -2.390625 1.09375 -2.390625 L 1.078125 -2.390625 L 1.078125 -2.53125 L 1.6875 -2.53125 L 1.6875 -0.359375 C 1.6875 -0.265625 1.710938 -0.203125 1.765625 -0.171875 C 1.816406 -0.148438 1.878906 -0.140625 1.953125 -0.140625 L 1.984375 -0.140625 L 1.984375 0 L 1.421875 0 L 1.390625 -0.296875 L 1.375 -0.296875 C 1.320312 -0.191406 1.253906 -0.109375 1.171875 -0.046875 C 1.097656 0.00390625 0.992188 0.03125 0.859375 0.03125 Z M 0.921875 -0.1875 C 1.085938 -0.1875 1.203125 -0.242188 1.265625 -0.359375 C 1.335938 -0.472656 1.375 -0.648438 1.375 -0.890625 C 1.375 -1.117188 1.335938 -1.296875 1.265625 -1.421875 C 1.203125 -1.546875 1.085938 -1.609375 0.921875 -1.609375 C 0.773438 -1.609375 0.664062 -1.546875 0.59375 -1.421875 C 0.53125 -1.296875 0.5 -1.117188 0.5 -0.890625 C 0.5 -0.648438 0.53125 -0.472656 0.59375 -0.359375 C 0.664062 -0.242188 0.773438 -0.1875 0.921875 -0.1875 Z "/>
</g>
</g>
</defs>
<g fill="rgb(98.823529%, 38.431373%, 33.333333%)" fill-opacity="1">
<use xlink:href="#glyph-0-0" x="30" y="23.5625"/>
<use xlink:href="#glyph-0-1" x="32" y="23.5625"/>
<use xlink:href="#glyph-0-2" x="33" y="23.5625"/>
<use xlink:href="#glyph-0-3" x="34" y="23.5625"/>
<use xlink:href="#glyph-0-4" x="36" y="23.5625"/>
<use xlink:href="#glyph-0-5" x="38" y="23.5625"/>
<use xlink:href="#glyph-0-1" x="39" y="23.5625"/>
<use xlink:href="#glyph-0-2" x="40" y="23.5625"/>
<use xlink:href="#glyph-0-6" x="41" y="23.5625"/>
<use xlink:href="#glyph-0-7" x="43" y="23.5625"/>
<use xlink:href="#glyph-0-8" x="45" y="23.5625"/>
<use xlink:href="#glyph-0-9" x="46" y="23.5625"/>
<use xlink:href="#glyph-0-7" x="48" y="23.5625"/>
</g>
</svg>
